<?xml version="1.0" standalone="no"?>
<!DOCTYPE svg PUBLIC "-//W3C//DTD SVG 20010904//EN"
 "http://www.w3.org/TR/2001/REC-SVG-20010904/DTD/svg10.dtd">
<svg version="1.0" xmlns="http://www.w3.org/2000/svg"
 width="362.000000pt" height="569.000000pt" viewBox="0 0 362.000000 569.000000"
 preserveAspectRatio="xMidYMid meet">

<g transform="translate(0.000000,569.000000) scale(0.100000,-0.100000)"
fill="#000000" stroke="none">
<path d="M2459 5506 c-3 -3 -34 -7 -69 -9 -66 -5 -96 -14 -162 -48 -20 -10
-50 -19 -66 -19 -22 0 -39 -10 -62 -37 -29 -32 -31 -40 -25 -77 4 -23 10 -82
13 -132 4 -50 13 -98 20 -106 10 -12 10 -25 1 -59 -15 -58 -16 -94 -4 -94 11
0 63 -35 52 -35 -3 0 4 -19 17 -42 13 -24 21 -49 19 -55 -3 -7 0 -13 7 -13 6
0 9 -4 6 -9 -3 -5 1 -15 10 -22 12 -10 22 -10 46 -1 39 14 60 6 53 -22 -2 -11
-2 -15 1 -8 8 17 25 15 18 -3 -4 -8 -16 -15 -28 -15 -36 0 -50 -16 -49 -57 3
-122 2 -168 -5 -172 -16 -12 -102 -244 -102 -279 -1 -15 -2 -15 -13 -1 -17 22
-47 31 -62 19 -21 -17 -40 -2 -70 58 -27 52 -54 85 -96 116 -9 6 -29 36 -46
66 -32 58 -36 106 -13 161 10 23 18 27 66 31 30 3 60 10 66 16 7 7 14 40 16
74 4 49 10 68 28 87 13 13 24 26 25 30 0 3 2 13 4 22 1 9 -12 34 -31 55 -29
32 -34 45 -34 88 0 86 -41 206 -70 206 -5 0 -28 13 -52 28 -100 67 -246 82
-343 36 -60 -28 -94 -63 -131 -135 -25 -51 -30 -84 -15 -108 6 -9 4 -19 -5
-29 -9 -8 -12 -22 -9 -30 3 -9 3 -14 0 -10 -8 7 -39 -22 -54 -50 -16 -31 -26
-162 -12 -162 6 0 11 -9 11 -21 0 -11 17 -40 37 -64 31 -37 46 -46 90 -55 49
-11 53 -14 53 -40 0 -21 -14 -43 -50 -80 -78 -83 -127 -231 -116 -353 4 -40 7
-81 6 -92 0 -11 5 -30 12 -42 9 -18 8 -28 -1 -47 -8 -13 -10 -30 -6 -36 8 -13
14 -59 20 -165 7 -102 7 -118 0 -171 -6 -45 -3 -59 24 -117 17 -35 31 -68 31
-73 0 -4 7 -15 16 -25 15 -17 15 -21 -5 -52 -11 -19 -18 -37 -15 -40 4 -3 3
-14 -2 -24 -4 -10 -8 -25 -10 -33 -1 -8 -12 -53 -24 -100 -32 -124 -29 -224
10 -385 30 -118 32 -140 28 -245 -5 -107 -8 -121 -42 -195 -21 -44 -54 -120
-73 -170 -30 -75 -63 -141 -123 -245 -4 -8 -20 -44 -35 -80 -15 -36 -52 -117
-82 -180 -70 -147 -87 -184 -108 -245 -10 -27 -22 -56 -28 -62 -5 -7 -22 -40
-38 -74 -20 -41 -33 -58 -41 -53 -10 5 -10 4 -1 -6 20 -22 -53 -140 -86 -140
-10 0 -31 -29 -53 -73 -43 -83 -128 -193 -184 -238 l-39 -32 40 6 c22 4 33 4
25 0 -8 -3 -29 -12 -46 -20 -17 -8 -35 -13 -40 -11 -5 1 -35 -13 -67 -31 -48
-28 -57 -37 -57 -61 0 -17 7 -34 18 -40 13 -8 11 -9 -13 -4 -16 4 -38 11 -47
15 -19 10 -82 12 -115 3 -28 -8 -37 -33 -24 -67 7 -18 22 -29 50 -37 22 -6 52
-17 68 -25 15 -8 42 -15 59 -15 18 0 76 -9 130 -21 55 -11 135 -28 179 -37 57
-12 80 -21 80 -32 0 -9 15 -18 40 -24 22 -4 85 -23 140 -42 55 -19 113 -34
128 -34 16 0 42 -9 58 -21 20 -14 40 -19 66 -17 l38 3 -45 14 c-60 18 -90 32
-90 44 0 5 7 3 16 -4 10 -8 38 -19 63 -25 25 -6 53 -14 61 -18 10 -4 21 3 33
21 17 25 17 18 2 -20 -5 -11 7 -13 52 -10 32 2 76 8 98 14 56 14 308 40 442
46 139 6 277 -16 377 -61 47 -20 71 -26 73 -19 3 8 45 12 134 12 72 1 134 3
138 5 4 3 32 6 62 7 30 1 91 10 136 20 45 11 103 22 130 26 74 9 78 16 78 110
0 46 -3 83 -7 83 -13 0 -9 28 5 37 7 4 19 26 26 48 13 40 12 47 -15 327 -4 37
-11 65 -16 62 -5 -3 -8 110 -8 258 0 145 -2 279 -4 298 -3 19 -8 55 -11 80 -3
25 -17 92 -31 150 -13 58 -27 115 -30 128 -2 12 -9 22 -14 22 -6 0 -10 7 -10
15 0 8 5 15 10 15 13 0 13 47 0 55 -7 4 -9 24 -5 48 3 23 7 54 9 69 1 15 7 33
13 40 6 7 19 40 28 73 19 64 61 176 100 265 21 47 25 76 30 205 3 83 0 197 -6
255 -5 58 -12 122 -14 142 -1 20 -5 40 -8 45 -8 12 -27 224 -30 325 -2 48 -6
90 -9 93 -7 8 23 65 35 65 4 0 7 7 7 16 0 9 11 48 24 87 18 51 28 112 36 209
6 75 15 160 20 189 6 28 10 75 10 104 0 28 5 77 11 109 12 66 -3 134 -48 221
-35 66 -124 177 -170 212 -55 41 -84 75 -79 90 3 7 2 12 -2 12 -22 -3 -53 17
-58 37 -3 13 -10 24 -14 24 -4 0 -18 17 -31 38 -24 41 -32 149 -12 174 45 56
28 285 -22 304 -8 4 -12 10 -9 15 8 13 -34 69 -52 69 -8 0 -25 6 -37 14 -23
15 -90 29 -98 22z m-379 -1318 c0 -4 -9 -8 -20 -8 -11 0 -20 4 -20 8 0 4 9 8
20 8 11 0 20 -4 20 -8z m160 -2177 c0 -32 -6 -24 -14 19 -4 25 -3 31 4 20 5
-8 10 -26 10 -39z m10 -106 c0 -22 4 -46 9 -54 8 -12 -7 -41 -21 -41 -2 0 -3
26 -3 58 0 31 -4 71 -8 87 -8 28 -8 29 7 10 8 -11 16 -38 16 -60z m19 -137
c-1 -24 3 -53 9 -65 9 -16 9 -23 -1 -27 -9 -5 -9 -7 1 -12 6 -3 12 -13 12 -22
0 -15 2 -15 10 -2 11 16 12 4 15 -150 0 -47 4 -91 8 -97 4 -6 7 -22 6 -34 -1
-56 23 -337 32 -372 5 -20 23 -52 39 -71 17 -18 30 -38 30 -43 0 -5 -13 -22
-30 -36 -16 -15 -36 -42 -44 -60 -7 -19 -26 -44 -42 -56 -28 -22 -28 -22 -35
-3 -4 11 -8 134 -9 274 -2 277 -3 298 -14 316 -4 7 -5 19 -2 27 3 8 -4 21 -17
30 -18 12 -19 15 -4 15 20 0 23 16 5 23 -10 4 -9 8 2 16 13 10 13 13 -2 22
-21 12 -24 49 -5 49 10 0 12 33 10 147 -2 132 4 173 24 173 2 0 3 -19 2 -42z
m41 -1078 c0 -5 -5 -10 -11 -10 -5 0 -7 5 -4 10 3 6 8 10 11 10 2 0 4 -4 4
-10z m-1580 -335 l25 -30 -27 24 c-16 14 -28 29 -28 34 0 6 1 8 3 6 1 -2 13
-17 27 -34z"/>
<path d="M2105 4230 c3 -5 11 -10 16 -10 6 0 7 5 4 10 -3 6 -11 10 -16 10 -6
0 -7 -4 -4 -10z"/>
<path d="M810 1155 c-11 -13 -10 -14 4 -9 9 3 16 10 16 15 0 13 -6 11 -20 -6z"/>
</g>
</svg>
